<svg id="Layer_1" height="512" viewBox="0 0 150 150" width="512" xmlns="http://www.w3.org/2000/svg" data-name="Layer 1"><path d="m66.463 102.742c-9.54 0-17.3-5.9-17.3-13.152s7.761-13.145 17.3-13.145a21.348 21.348 0 0 1 8.952 1.893v-38.181a4.925 4.925 0 0 1 4.92-4.919 5 5 0 0 1 2.492.671 4.836 4.836 0 0 1 1.815 1.879 25.857 25.857 0 0 0 6.421 7.976c.515.4 1.041.788 1.569 1.178 4.208 3.121 8.977 6.659 8.1 14.669a4.7 4.7 0 0 1 -1.8 3.184l-5.467 4.226a1 1 0 0 1 -1.565-1.087c.03-.093 2.817-9.324-2.286-12.783a20.39 20.39 0 0 1 -2.92-2.287q-1.721-1.71-2.927-2.951v39.677c-.003 7.252-7.767 13.152-17.304 13.152zm0-24.3c-8.437 0-15.3 5-15.3 11.145s6.864 11.152 15.3 11.152 15.3-5 15.3-11.152v-42.179a1 1 0 0 1 1.739-.674c.9.984 2.442 2.568 4.595 4.708a18.651 18.651 0 0 0 2.636 2.058c4.37 2.963 4.237 8.787 3.691 12.256l3.284-2.539a2.682 2.682 0 0 0 1.036-1.817c.752-6.872-3.161-9.774-7.3-12.846-.538-.4-1.074-.8-1.6-1.2a27.849 27.849 0 0 1 -6.96-8.611 2.817 2.817 0 0 0 -1.062-1.1 2.981 2.981 0 0 0 -1.484-.4 2.923 2.923 0 0 0 -2.92 2.919v39.819a1 1 0 0 1 -1.5.866 18.865 18.865 0 0 0 -9.455-2.402z"/><path d="m66.187 96.694c-5.915 0-10.548-3.173-10.548-7.225s4.633-7.226 10.548-7.226 10.555 3.174 10.555 7.226-4.636 7.225-10.555 7.225zm0-12.451c-4.633 0-8.548 2.393-8.548 5.226s3.915 5.225 8.548 5.225 8.555-2.392 8.555-5.225-3.918-5.226-8.555-5.226z"/><path d="m23.773 129.733a48.139 48.139 0 0 1 -10.121-.973 1 1 0 0 1 -.276-1.829c8.332-4.993 14.488-11.219 18.311-18.521-13.794-9.57-21.687-23.249-21.687-37.651 0-27.842 29.162-50.492 65.007-50.492s64.993 22.65 64.993 50.492-29.156 50.492-64.993 50.492a82.423 82.423 0 0 1 -20.23-2.481c-10.324 9.069-22.577 10.963-31.004 10.963zm-7.15-2.477c6.364.89 23.641 1.9 37.219-10.331a1 1 0 0 1 .921-.225 80.232 80.232 0 0 0 20.244 2.551c34.734 0 62.993-21.751 62.993-48.492s-28.259-48.492-62.993-48.492-63.007 21.754-63.007 48.492c0 13.979 7.85 27.28 21.536 36.493a1 1 0 0 1 .337 1.273c-3.625 7.31-9.422 13.601-17.25 18.731z"/></svg>