<svg height="512pt" viewBox="-18 0 512 512" width="512pt" xmlns="http://www.w3.org/2000/svg"><path d="m143.867188 432.578125c-9.230469 0-17.90625 3.59375-24.433594 10.121094l-35.726563 35.726562c-7.601562 7.601563-17.714843 11.792969-28.46875 11.792969-10.753906 0-20.863281-4.191406-28.46875-11.792969-7.605469-7.605469-11.792969-17.714843-11.792969-28.472656 0-10.753906 4.1875-20.863281 11.792969-28.46875l5.078125-5.082031.285156.285156c4.957032 4.957031 11.46875 7.4375 17.980469 7.4375s13.023438-2.480469 17.980469-7.4375l4.988281-4.988281c2.191407.847656 4.511719 1.273437 6.832031 1.273437 4.457032 0 8.921876-1.566406 12.496094-4.726562l221.917969-196.242188c3.101563-2.746094 3.394531-7.484375.648437-10.585937-2.742187-3.105469-7.480468-3.394531-10.585937-.652344l-161.445313 142.769531-48.835937-48.832031 142.0625-160.648437c2.746094-3.105469 2.453125-7.84375-.648437-10.585938-3.105469-2.746094-7.84375-2.453125-10.585938.648438l-195.542969 221.121093c-4.800781 5.429688-5.917969 12.933594-3.449219 19.324219l-4.988281 4.988281c-9.914062 9.914063-9.914062 26.046875 0 35.960938l.285157.285156-5.082032 5.082031c-21.546875 21.542969-21.546875 56.605469 0 78.152344s56.605469 21.542969 78.152344 0l35.726562-35.726562c3.691407-3.695313 8.601563-5.726563 13.828126-5.726563 5.222656 0 10.132812 2.03125 13.824218 5.726563 7.625 7.625 7.625 20.027343 0 27.652343l-14.105468 14.105469c-2.929688 2.929688-2.929688 7.679688 0 10.609375 1.460937 1.464844 3.382812 2.195313 5.300781 2.195313s3.839843-.730469 5.304687-2.195313l14.105469-14.109375c13.472656-13.472656 13.472656-35.394531 0-48.867188-6.523437-6.523437-15.203125-10.117187-24.429687-10.117187zm-101.128907-26.496094-11.175781-11.175781c-4.0625-4.066406-4.0625-10.683594 0-14.75l3.851562-3.851562 25.925782 25.925781-3.851563 3.851562c-4.066406 4.066407-10.683593 4.066407-14.75 0zm88.945313-52.589843-15.980469 14.132812-45.683594-45.683594 14.132813-15.980468zm-91.050782 1.683593 19.433594-21.976562 44.378906 44.378906-21.976562 19.433594c-1.527344 1.347656-3.851562 1.28125-5.296875-.164063l-36.375-36.375c-1.445313-1.445312-1.515625-3.769531-.164063-5.296875zm0 0"/><path d="m467.316406 301.253906-141.957031-34.761718c-3.34375-.820313-6.816406-.070313-9.523437 2.054687-2.710938 2.125-4.265626 5.316406-4.265626 8.761719v127.875c-6.21875-3.378906-13.96875-5.359375-22.460937-5.359375-21.007813 0-37.460937 12.101562-37.460937 27.550781 0 15.445312 16.453124 27.546875 37.460937 27.546875s37.460937-12.101563 37.460937-27.546875v-97.015625l134.238282 32.1875v99.714844c-6.21875-3.378907-13.96875-5.359375-22.464844-5.359375-21.003906 0-37.460938 12.101562-37.460938 27.546875 0 15.449219 16.457032 27.550781 37.460938 27.550781 21.007812 0 37.464844-12.101562 37.464844-27.550781v-172.378907c0-5.144531-3.492188-9.59375-8.492188-10.816406zm-178.207031 138.667969c-13.238281 0-22.464844-6.613281-22.464844-12.546875 0-5.9375 9.226563-12.550781 22.464844-12.550781 13.234375 0 22.460937 6.613281 22.460937 12.550781 0 5.933594-9.222656 12.546875-22.460937 12.546875zm37.460937-157.691406 134.238282 32.871093v32.015626l-134.238282-32.183594zm111.773438 214.769531c-13.234375 0-22.460938-6.613281-22.460938-12.550781 0-5.933594 9.226563-12.546875 22.460938-12.546875 13.238281 0 22.464844 6.613281 22.464844 12.546875 0 5.9375-9.226563 12.550781-22.464844 12.550781zm0 0"/><path d="m243.878906 107.882812s0 .003907.003906.003907c.011719.046875.027344.09375.039063.140625.011719.035156.023437.070312.035156.109375.003907.011719.007813.023437.011719.039062.121094.367188.265625.726563.4375 1.066407 17.410156 36.78125 47.242188 66.605468 84.027344 84.011718.300781.148438.613281.28125.9375.390625.003906 0 .007812 0 .011718.003907.035157.011718.074219.023437.109376.035156.605468.195312 1.222656.308594 1.835937.347656 3.058594.285156 6.113281.429688 9.152344.429688 25.699219 0 50.320312-10.113282 68.6875-28.484376 18.363281-18.363281 28.476562-42.777343 28.476562-68.75 0-25.96875-10.113281-50.386718-28.476562-68.75-18.363281-18.363281-42.78125-28.476562-68.75-28.476562-25.972657 0-50.390625 10.113281-68.75 28.476562-20.542969 20.542969-30.757813 48.898438-28.054688 77.839844.03125.523438.117188 1.046875.265625 1.566406zm154.679688-68.796874c15.53125 15.527343 24.085937 36.179687 24.085937 58.144531 0 14.976562-3.976562 29.339843-11.429687 41.886719-19.316406-5.941407-44.472656-22.949219-67.105469-45.582032-22.636719-22.632812-39.640625-47.789062-45.582031-67.105468 12.546875-7.453126 26.914062-11.429688 41.890625-11.429688 21.960937 0 42.613281 8.554688 58.140625 24.085938zm-116.285156 0c1.164062-1.164063 2.355468-2.289063 3.574218-3.375 7.746094 20.898437 24.875 45.652343 47.65625 68.433593 22.777344 22.777344 47.53125 39.90625 68.429688 47.652344-1.085938 1.21875-2.207032 2.414063-3.371094 3.574219-17.117188 17.117187-40.652344 25.761718-64.765625 23.820312-32.835937-15.828125-59.515625-42.507812-75.34375-75.34375-1.9375-24.105468 6.703125-47.644531 23.820313-64.761718zm0 0"/></svg>