<svg id="Capa_1" enable-background="new 0 0 512 512" height="512" viewBox="0 0 512 512" width="512" xmlns="http://www.w3.org/2000/svg"><g><path d="m497 121h-26v350h-350v26c0 8.284 6.716 15 15 15h361c8.284 0 15-6.716 15-15v-361c0-8.284-6.716-15-15-15z"/><path d="m436 91c0-8.284-6.716-15-15-15h-25v320h-320v25c0 8.284 6.716 15 15 15h345z"/><path d="m361 15c0-8.284-6.716-15-15-15h-331c-8.284 0-15 6.716-15 15v331c0 8.284 6.716 15 15 15h346zm-121.5 126.081v-50.576c0-10.216 10.007-17.44 19.696-14.246l45.5 15c7.868 2.594 12.144 11.075 9.55 18.942-2.594 7.868-11.074 12.142-18.942 9.55l-25.804-8.507v77.261c0 28.949-23.551 52.5-52.5 52.5s-52.5-23.551-52.5-52.5c0-38.74 40.552-63.834 75-47.424zm-179.5-65.576h135c8.284 0 15 6.716 15 15s-6.716 15-15 15h-135c-8.284 0-15-6.716-15-15s6.716-15 15-15zm0 60h75c8.284 0 15 6.716 15 15s-6.716 15-15 15h-75c-8.284 0-15-6.716-15-15s6.716-15 15-15zm0 60h75c8.284 0 15 6.716 15 15s-6.716 15-15 15h-75c-8.284 0-15-6.716-15-15s6.716-15 15-15zm241 90h-241c-8.284 0-15-6.716-15-15s6.716-15 15-15h241c8.284 0 15 6.716 15 15s-6.716 15-15 15z"/><circle cx="217" cy="188.505" r="22.5"/></g></svg>