<svg fill="none" height="512" viewBox="0 0 24 24" width="512" xmlns="http://www.w3.org/2000/svg"><g fill="rgb(0,0,0)"><path clip-rule="evenodd" d="m11.5 1.5c-2.76142 0-5 2.23858-5 5s2.23858 5 5 5c2.7614 0 5-2.23858 5-5s-2.2386-5-5-5zm-4 5c0-2.20914 1.79086-4 4-4 2.2091 0 4 1.79086 4 4s-1.7909 4-4 4c-2.20914 0-4-1.79086-4-4z" fill-rule="evenodd"/><path d="m9.29412 12.5c-3.25698 0-5.79412 2.9708-5.79412 6.5v4c0 .2761.22386.5.5.5h15c.2761 0 .5-.2239.5-.5s-.2239-.5-.5-.5h-14.5v-3.5c0-3.0982 2.20337-5.5 4.79412-5.5h4.41178c1.4075 0 2.6881.6982 3.5761 1.8385.1697.2178.4838.2569.7017.0872.2179-.1696.2569-.4838.0873-.7017-1.0522-1.351-2.6102-2.224-4.3651-2.224z"/><path clip-rule="evenodd" d="m20.5 16.9998c-.4178-.3138-.9372-.4998-1.5-.4998-1.3807 0-2.5 1.1193-2.5 2.5s1.1193 2.5 2.5 2.5 2.5-1.1193 2.5-2.5v-5.1137l1.2414.75c.2364.1428.5437.067.6866-.1693.1428-.2364.0669-.5438-.1694-.6866l-2-1.2084c-.1544-.0932-.3471-.0961-.5043-.0075-.1571.0887-.2543.2551-.2543.4355zm-1.5.5002c-.8284 0-1.5.6716-1.5 1.5s.6716 1.5 1.5 1.5 1.5-.6716 1.5-1.5-.6716-1.5-1.5-1.5z" fill-rule="evenodd"/></g></svg>